# spidey_osrs_100.obj
mtllib spidey.mtl
o SpideyHead_OSRS_96

# --- VERTICES (50 Total) ---
# Top of Head
v 0.0 2.5 0.0

# Ring 1: Crown
v 0.0 2.0 0.74
v 0.35 2.0 0.63
v 0.61 2.0 0.32
v 0.7 2.0 -0.1
v 0.61 2.0 -0.52
v 0.35 2.0 -0.83
v 0.0 2.0 -0.94
v -0.35 2.0 -0.83
v -0.61 2.0 -0.52
v -0.7 2.0 -0.1
v -0.61 2.0 0.32
v -0.35 2.0 0.63

# Ring 2: Forehead / Brows
v 0.0 1.3 1.08
v 0.45 1.3 0.94
v 0.78 1.3 0.54
v 0.9 1.3 0.0
v 0.78 1.3 -0.54
v 0.45 1.3 -0.94
v 0.0 1.3 -1.08
v -0.45 1.3 -0.94
v -0.78 1.3 -0.54
v -0.9 1.3 0.0
v -0.78 1.3 0.54
v -0.45 1.3 0.94

# Ring 3: Cheeks / Nose Bridge
v 0.0 0.6 1.06
v 0.4 0.6 0.93
v 0.69 0.6 0.58
v 0.8 0.6 0.1
v 0.69 0.6 -0.38
v 0.4 0.6 -0.73
v 0.0 0.6 -0.86
v -0.4 0.6 -0.73
v -0.69 0.6 -0.38
v -0.8 0.6 0.1
v -0.69 0.6 0.58
v -0.4 0.6 0.93

# Ring 4: Jawline / Mouth
v 0.0 0.0 0.92
v 0.3 0.0 0.82
v 0.52 0.0 0.56
v 0.6 0.0 0.2
v 0.52 0.0 -0.16
v 0.3 0.0 -0.42
v 0.0 0.0 -0.52
v -0.3 0.0 -0.42
v -0.52 0.0 -0.16
v -0.6 0.0 0.2
v -0.52 0.0 0.56
v -0.3 0.0 0.82

# Bottom: Neck Base
v 0.0 -0.5 0.1

# --- FACES (96 Triangles) ---
usemtl RedMask

# Top Cap
f 1 2 3
f 1 3 4
f 1 4 5
f 1 5 6
f 1 6 7
f 1 7 8
f 1 8 9
f 1 9 10
f 1 10 11
f 1 11 12
f 1 12 13
f 1 13 2

# Row 1 (Crown to Forehead)
f 2 14 15
f 2 15 3
f 3 15 16
f 3 16 4
f 4 16 17
f 4 17 5
f 5 17 18
f 5 18 6
f 6 18 19
f 6 19 7
f 7 19 20
f 7 20 8
f 8 20 21
f 8 21 9
f 9 21 22
f 9 22 10
f 10 22 23
f 10 23 11
f 11 23 24
f 11 24 12
f 12 24 25
f 12 25 13
f 13 25 14
f 13 14 2

# Row 2 (Forehead to Cheeks) - Mask Portions
f 14 26 27
f 14 27 15
f 16 28 29
f 16 29 17
f 17 29 30
f 17 30 18
f 18 30 31
f 18 31 19
f 19 31 32
f 19 32 20
f 20 32 33
f 20 33 21
f 21 33 34
f 21 34 22
f 22 34 35
f 22 35 23
f 23 35 36
f 23 36 24
f 25 37 26
f 25 26 14

usemtl WhiteEye
# Row 2 - Right Eye Area
f 15 27 28
f 15 28 16

# Row 2 - Left Eye Area
f 24 36 37
f 24 37 25

usemtl RedMask
# Row 3 (Cheeks to Jaw)
f 26 38 39
f 26 39 27
f 27 39 40
f 27 40 28
f 28 40 41
f 28 41 29
f 29 41 42
f 29 42 30
f 30 42 43
f 30 43 31
f 31 43 44
f 31 44 32
f 32 44 45
f 32 45 33
f 33 45 46
f 33 46 34
f 34 46 47
f 34 47 35
f 35 47 48
f 35 48 36
f 36 48 49
f 36 49 37
f 37 49 38
f 37 38 26

# Bottom Cap (Neck)
f 50 39 38
f 50 40 39
f 50 41 40
f 50 42 41
f 50 43 42
f 50 44 43
f 50 45 44
f 50 46 45
f 50 47 46
f 50 48 47
f 50 49 48
f 50 38 49